<mxfile host="app.diagrams.net" modified="2023-04-17T18:34:49.291Z" agent="Mozilla/5.0 (Windows NT 10.0; Win64; x64) AppleWebKit/537.36 (KHTML, like Gecko) Chrome/112.0.0.0 Safari/537.36" etag="gV7DHQTZZAMv9Ajt411a" version="21.1.4" type="github">
  <diagram name="Page-1" id="rZvOIUDb-UgiruIImso8">
    <mxGraphModel dx="794" dy="470" grid="1" gridSize="10" guides="1" tooltips="1" connect="1" arrows="1" fold="1" page="1" pageScale="1" pageWidth="850" pageHeight="1100" math="0" shadow="0">
      <root>
        <mxCell id="0" />
        <mxCell id="1" parent="0" />
        <mxCell id="9GcNmrUak-LWxILDc-qs-1" value="" style="rounded=0;html=1;jettySize=auto;orthogonalLoop=1;fontSize=11;endArrow=classic;endFill=1;endSize=8;strokeWidth=1;shadow=0;labelBackgroundColor=none;edgeStyle=orthogonalEdgeStyle;exitX=0.25;exitY=1;exitDx=0;exitDy=0;entryX=0.25;entryY=0;entryDx=0;entryDy=0;" parent="1" source="9GcNmrUak-LWxILDc-qs-2" target="9GcNmrUak-LWxILDc-qs-3" edge="1">
          <mxGeometry relative="1" as="geometry">
            <mxPoint x="350" y="180" as="targetPoint" />
          </mxGeometry>
        </mxCell>
        <mxCell id="9GcNmrUak-LWxILDc-qs-2" value="Time de PD&amp;amp;I SENAI-CIMATEC" style="rounded=1;whiteSpace=wrap;html=1;fontSize=12;glass=0;strokeWidth=1;shadow=0;fillColor=#dae8fc;strokeColor=#6c8ebf;" parent="1" vertex="1">
          <mxGeometry x="320" y="60" width="200" height="40" as="geometry" />
        </mxCell>
        <mxCell id="9GcNmrUak-LWxILDc-qs-3" value="&lt;font color=&quot;#ff3333&quot;&gt;Desenvolver modelo fenomenológico para predição e otimização do processo de separação de CO2 do gás natural usando membranas cerâmicas&amp;nbsp;&lt;/font&gt;" style="rounded=0;whiteSpace=wrap;html=1;fillColor=#dae8fc;strokeColor=#6c8ebf;" parent="1" vertex="1">
          <mxGeometry x="320" y="180" width="200" height="140" as="geometry" />
        </mxCell>
        <mxCell id="9GcNmrUak-LWxILDc-qs-7" value="&lt;div&gt;Dados de validação&lt;/div&gt;&lt;div&gt;Código de simulação&lt;/div&gt;&lt;div&gt;Método numérico&lt;/div&gt;&lt;div&gt;&lt;br&gt;&lt;/div&gt;" style="rounded=1;whiteSpace=wrap;html=1;fontSize=12;glass=0;strokeWidth=1;shadow=0;fillColor=#dae8fc;strokeColor=#6c8ebf;" parent="1" vertex="1">
          <mxGeometry x="320" y="390" width="200" height="150" as="geometry" />
        </mxCell>
        <mxCell id="9GcNmrUak-LWxILDc-qs-8" value="" style="rounded=0;html=1;jettySize=auto;orthogonalLoop=1;fontSize=11;endArrow=classic;endFill=1;endSize=8;strokeWidth=1;shadow=0;labelBackgroundColor=none;edgeStyle=orthogonalEdgeStyle;exitX=0.75;exitY=0;exitDx=0;exitDy=0;entryX=0.75;entryY=1;entryDx=0;entryDy=0;" parent="1" source="9GcNmrUak-LWxILDc-qs-3" target="9GcNmrUak-LWxILDc-qs-2" edge="1">
          <mxGeometry relative="1" as="geometry">
            <mxPoint x="378" y="110" as="sourcePoint" />
            <mxPoint x="378" y="190" as="targetPoint" />
          </mxGeometry>
        </mxCell>
        <mxCell id="9GcNmrUak-LWxILDc-qs-9" value="" style="rounded=0;html=1;jettySize=auto;orthogonalLoop=1;fontSize=11;endArrow=classic;endFill=1;endSize=8;strokeWidth=1;shadow=0;labelBackgroundColor=none;edgeStyle=orthogonalEdgeStyle;exitX=0.25;exitY=1;exitDx=0;exitDy=0;entryX=0.25;entryY=0;entryDx=0;entryDy=0;" parent="1" source="9GcNmrUak-LWxILDc-qs-3" target="9GcNmrUak-LWxILDc-qs-7" edge="1">
          <mxGeometry relative="1" as="geometry">
            <mxPoint x="388" y="120" as="sourcePoint" />
            <mxPoint x="410" y="410" as="targetPoint" />
          </mxGeometry>
        </mxCell>
        <mxCell id="9GcNmrUak-LWxILDc-qs-10" value="" style="rounded=0;html=1;jettySize=auto;orthogonalLoop=1;fontSize=11;endArrow=classic;endFill=1;endSize=8;strokeWidth=1;shadow=0;labelBackgroundColor=none;edgeStyle=orthogonalEdgeStyle;exitX=0.75;exitY=0;exitDx=0;exitDy=0;entryX=0.75;entryY=1;entryDx=0;entryDy=0;" parent="1" source="9GcNmrUak-LWxILDc-qs-7" target="9GcNmrUak-LWxILDc-qs-3" edge="1">
          <mxGeometry relative="1" as="geometry">
            <mxPoint x="398" y="130" as="sourcePoint" />
            <mxPoint x="460" y="400" as="targetPoint" />
          </mxGeometry>
        </mxCell>
        <mxCell id="9GcNmrUak-LWxILDc-qs-26" value="Função Global - Modelo Fenomenológico" style="text;html=1;align=center;verticalAlign=middle;resizable=0;points=[];autosize=1;strokeColor=none;fillColor=none;fontSize=19;" parent="1" vertex="1">
          <mxGeometry x="229" y="10" width="370" height="40" as="geometry" />
        </mxCell>
        <mxCell id="tpiX2UqeTkmQybxUgkPM-10" value="" style="group" parent="1" vertex="1" connectable="0">
          <mxGeometry x="20" y="180" width="300" height="25" as="geometry" />
        </mxCell>
        <mxCell id="9GcNmrUak-LWxILDc-qs-6" style="edgeStyle=orthogonalEdgeStyle;rounded=0;orthogonalLoop=1;jettySize=auto;html=1;fillColor=#9933FF;strokeColor=#6c8ebf;" parent="tpiX2UqeTkmQybxUgkPM-10" edge="1">
          <mxGeometry relative="1" as="geometry">
            <mxPoint x="290" y="15" as="targetPoint" />
            <mxPoint x="16" y="15" as="sourcePoint" />
            <Array as="points">
              <mxPoint x="35" y="15" />
            </Array>
          </mxGeometry>
        </mxCell>
        <mxCell id="tpiX2UqeTkmQybxUgkPM-11" value="" style="group" parent="1" vertex="1" connectable="0">
          <mxGeometry x="60" y="220" width="240.99" height="25" as="geometry" />
        </mxCell>
        <mxCell id="tpiX2UqeTkmQybxUgkPM-1" style="edgeStyle=orthogonalEdgeStyle;rounded=0;orthogonalLoop=1;jettySize=auto;html=1;fillColor=#dae8fc;strokeColor=#B5739D;" parent="tpiX2UqeTkmQybxUgkPM-11" edge="1">
          <mxGeometry relative="1" as="geometry">
            <mxPoint x="247.68416666666667" y="15" as="targetPoint" />
            <mxPoint x="-18.743666666666666" y="15" as="sourcePoint" />
            <Array as="points">
              <mxPoint x="6.694166666666667" y="15" />
            </Array>
          </mxGeometry>
        </mxCell>
        <mxCell id="tpiX2UqeTkmQybxUgkPM-12" value="" style="group" parent="1" vertex="1" connectable="0">
          <mxGeometry x="39.5" y="260" width="270.5" height="25" as="geometry" />
        </mxCell>
        <mxCell id="tpiX2UqeTkmQybxUgkPM-3" style="edgeStyle=orthogonalEdgeStyle;rounded=0;orthogonalLoop=1;jettySize=auto;html=1;fillColor=#dae8fc;strokeColor=#FFD966;" parent="tpiX2UqeTkmQybxUgkPM-12" edge="1">
          <mxGeometry relative="1" as="geometry">
            <mxPoint x="271.8991628006185" y="15" as="targetPoint" />
            <mxPoint x="-5.577418724115252" y="15" as="sourcePoint" />
            <Array as="points">
              <mxPoint x="20.915320215432196" y="15" />
            </Array>
          </mxGeometry>
        </mxCell>
        <mxCell id="tpiX2UqeTkmQybxUgkPM-4" value="Propriedades da Mistura do gás de Alimentação" style="text;html=1;align=center;verticalAlign=middle;resizable=0;points=[];autosize=1;strokeColor=none;fillColor=none;" parent="tpiX2UqeTkmQybxUgkPM-12" vertex="1">
          <mxGeometry x="-13.713291305489875" y="-15" width="280" height="30" as="geometry" />
        </mxCell>
        <mxCell id="tpiX2UqeTkmQybxUgkPM-34" value="" style="group" parent="1" vertex="1" connectable="0">
          <mxGeometry x="522.5" y="220" width="277.5" height="25" as="geometry" />
        </mxCell>
        <mxCell id="9GcNmrUak-LWxILDc-qs-19" style="edgeStyle=orthogonalEdgeStyle;rounded=0;orthogonalLoop=1;jettySize=auto;html=1;fillColor=#dae8fc;strokeColor=#ff70a2;" parent="tpiX2UqeTkmQybxUgkPM-34" edge="1">
          <mxGeometry relative="1" as="geometry">
            <mxPoint x="272.05882352941177" y="20" as="targetPoint" />
            <mxPoint y="20" as="sourcePoint" />
            <Array as="points">
              <mxPoint x="174.11764705882354" y="20" />
              <mxPoint x="174.11764705882354" y="20" />
            </Array>
          </mxGeometry>
        </mxCell>
        <mxCell id="tpiX2UqeTkmQybxUgkPM-38" value="" style="group" parent="1" vertex="1" connectable="0">
          <mxGeometry x="520" y="180" width="340" height="60" as="geometry" />
        </mxCell>
        <mxCell id="tpiX2UqeTkmQybxUgkPM-40" style="edgeStyle=orthogonalEdgeStyle;rounded=0;orthogonalLoop=1;jettySize=auto;html=1;fillColor=#dae8fc;strokeColor=#6c8ebf;" parent="tpiX2UqeTkmQybxUgkPM-38" edge="1">
          <mxGeometry relative="1" as="geometry">
            <mxPoint x="270.91633466135454" y="20" as="targetPoint" />
            <mxPoint y="20" as="sourcePoint" />
            <Array as="points">
              <mxPoint y="20" />
            </Array>
          </mxGeometry>
        </mxCell>
        <mxCell id="9GcNmrUak-LWxILDc-qs-14" value="Fluxo transmembrana" style="text;html=1;align=center;verticalAlign=middle;resizable=0;points=[];autosize=1;strokeColor=none;fillColor=none;" parent="tpiX2UqeTkmQybxUgkPM-38" vertex="1">
          <mxGeometry x="70" y="30" width="140" height="30" as="geometry" />
        </mxCell>
        <mxCell id="tpiX2UqeTkmQybxUgkPM-41" value="" style="group" parent="1" vertex="1" connectable="0">
          <mxGeometry x="554" y="295" width="256" height="25" as="geometry" />
        </mxCell>
        <mxCell id="tpiX2UqeTkmQybxUgkPM-42" value="Fator de seletividade e permeâncias dos gases" style="text;html=1;align=center;verticalAlign=middle;resizable=0;points=[];autosize=1;strokeColor=none;fillColor=none;" parent="tpiX2UqeTkmQybxUgkPM-41" vertex="1">
          <mxGeometry x="-30.199203187251" y="-5" width="270" height="30" as="geometry" />
        </mxCell>
        <mxCell id="tpiX2UqeTkmQybxUgkPM-79" value="&lt;div align=&quot;left&quot;&gt;Vazão&lt;/div&gt;" style="text;html=1;align=left;verticalAlign=middle;resizable=0;points=[];autosize=1;strokeColor=none;fillColor=none;" parent="1" vertex="1">
          <mxGeometry x="120.99" y="420" width="60" height="30" as="geometry" />
        </mxCell>
        <mxCell id="tpiX2UqeTkmQybxUgkPM-82" value="&lt;div align=&quot;left&quot;&gt;Pressão&lt;/div&gt;" style="text;html=1;align=left;verticalAlign=middle;resizable=0;points=[];autosize=1;strokeColor=none;fillColor=none;" parent="1" vertex="1">
          <mxGeometry x="120.99" y="440" width="70" height="30" as="geometry" />
        </mxCell>
        <mxCell id="tpiX2UqeTkmQybxUgkPM-85" value="&lt;div align=&quot;left&quot;&gt;Composição do gás natural&lt;/div&gt;" style="text;html=1;align=left;verticalAlign=middle;resizable=0;points=[];autosize=1;strokeColor=none;fillColor=none;" parent="1" vertex="1">
          <mxGeometry x="120.99" y="465" width="170" height="30" as="geometry" />
        </mxCell>
        <mxCell id="tpiX2UqeTkmQybxUgkPM-84" style="edgeStyle=orthogonalEdgeStyle;rounded=0;orthogonalLoop=1;jettySize=auto;html=1;fillColor=#dae8fc;strokeColor=#FFB570;" parent="1" edge="1">
          <mxGeometry relative="1" as="geometry">
            <mxPoint x="120" y="479.93" as="targetPoint" />
            <mxPoint x="40" y="479.93" as="sourcePoint" />
            <Array as="points" />
          </mxGeometry>
        </mxCell>
        <mxCell id="tpiX2UqeTkmQybxUgkPM-78" style="edgeStyle=orthogonalEdgeStyle;rounded=0;orthogonalLoop=1;jettySize=auto;html=1;fillColor=#dae8fc;strokeColor=#B5739D;" parent="1" edge="1">
          <mxGeometry relative="1" as="geometry">
            <mxPoint x="120" y="435" as="targetPoint" />
            <mxPoint x="40" y="435" as="sourcePoint" />
            <Array as="points" />
          </mxGeometry>
        </mxCell>
        <mxCell id="tpiX2UqeTkmQybxUgkPM-81" style="edgeStyle=orthogonalEdgeStyle;rounded=0;orthogonalLoop=1;jettySize=auto;html=1;fillColor=#dae8fc;strokeColor=#FFD966;" parent="1" edge="1">
          <mxGeometry relative="1" as="geometry">
            <mxPoint x="120" y="455" as="targetPoint" />
            <mxPoint x="40" y="455" as="sourcePoint" />
            <Array as="points">
              <mxPoint x="40" y="455" />
            </Array>
          </mxGeometry>
        </mxCell>
        <mxCell id="tpiX2UqeTkmQybxUgkPM-76" value="&lt;div align=&quot;left&quot;&gt;Temperatura&lt;/div&gt;" style="text;html=1;align=left;verticalAlign=middle;resizable=0;points=[];autosize=1;strokeColor=none;fillColor=none;" parent="1" vertex="1">
          <mxGeometry x="120.99499999999999" y="400" width="90" height="30" as="geometry" />
        </mxCell>
        <mxCell id="tpiX2UqeTkmQybxUgkPM-75" style="edgeStyle=orthogonalEdgeStyle;rounded=0;orthogonalLoop=1;jettySize=auto;html=1;fillColor=#9933FF;strokeColor=#6c8ebf;" parent="1" edge="1">
          <mxGeometry relative="1" as="geometry">
            <mxPoint x="120" y="415" as="targetPoint" />
            <mxPoint x="40" y="415" as="sourcePoint" />
            <Array as="points" />
          </mxGeometry>
        </mxCell>
        <mxCell id="tpiX2UqeTkmQybxUgkPM-97" value="" style="group" parent="1" vertex="1" connectable="0">
          <mxGeometry x="520" y="320" width="250" as="geometry" />
        </mxCell>
        <mxCell id="tpiX2UqeTkmQybxUgkPM-98" value="" style="endArrow=none;dashed=1;html=1;rounded=0;shadow=0;strokeColor=#000000;fillColor=#9933FF;" parent="tpiX2UqeTkmQybxUgkPM-97" edge="1">
          <mxGeometry width="50" height="50" relative="1" as="geometry">
            <mxPoint as="sourcePoint" />
            <mxPoint x="263.88888888888886" as="targetPoint" />
          </mxGeometry>
        </mxCell>
        <mxCell id="G2fZmf2o2PStY0HnktH1-1" value="" style="group" parent="1" vertex="1" connectable="0">
          <mxGeometry x="522.5" y="260" width="217.5" height="25" as="geometry" />
        </mxCell>
        <mxCell id="tpiX2UqeTkmQybxUgkPM-37" style="edgeStyle=orthogonalEdgeStyle;rounded=0;orthogonalLoop=1;jettySize=auto;html=1;fillColor=#dae8fc;strokeColor=#66ff85;" parent="G2fZmf2o2PStY0HnktH1-1" edge="1">
          <mxGeometry relative="1" as="geometry">
            <mxPoint x="270.1863354037267" y="20" as="targetPoint" />
            <mxPoint y="19.670000000000016" as="sourcePoint" />
            <Array as="points">
              <mxPoint y="19.670000000000016" />
            </Array>
          </mxGeometry>
        </mxCell>
        <mxCell id="gT1zug3m3cpek1p1BIkb-1" value="Permeância e seletividade" style="text;html=1;align=left;verticalAlign=middle;resizable=0;points=[];autosize=1;strokeColor=none;fillColor=none;" parent="1" vertex="1">
          <mxGeometry x="120.99285714285712" y="485" width="160" height="30" as="geometry" />
        </mxCell>
        <mxCell id="gT1zug3m3cpek1p1BIkb-2" value="" style="group" parent="1" vertex="1" connectable="0">
          <mxGeometry x="40" y="500" width="71" as="geometry" />
        </mxCell>
        <mxCell id="gT1zug3m3cpek1p1BIkb-3" value="" style="endArrow=none;dashed=1;html=1;rounded=0;shadow=0;strokeColor=#000000;fillColor=#9933FF;" parent="gT1zug3m3cpek1p1BIkb-2" edge="1">
          <mxGeometry width="50" height="50" relative="1" as="geometry">
            <mxPoint as="sourcePoint" />
            <mxPoint x="70.58235294117648" as="targetPoint" />
          </mxGeometry>
        </mxCell>
        <mxCell id="gT1zug3m3cpek1p1BIkb-4" value="" style="endArrow=classic;html=1;rounded=0;shadow=0;strokeColor=#000000;fillColor=#9933FF;" parent="gT1zug3m3cpek1p1BIkb-2" edge="1">
          <mxGeometry width="50" height="50" relative="1" as="geometry">
            <mxPoint x="71" as="sourcePoint" />
            <mxPoint x="80" as="targetPoint" />
          </mxGeometry>
        </mxCell>
        <mxCell id="tpiX2UqeTkmQybxUgkPM-6" value="Parâmetros Configuracionais da Membrana Cerâmica" style="text;html=1;align=center;verticalAlign=middle;resizable=0;points=[];autosize=1;strokeColor=none;fillColor=none;" parent="1" vertex="1">
          <mxGeometry x="10.990000000000009" y="285" width="310" height="30" as="geometry" />
        </mxCell>
        <mxCell id="gT1zug3m3cpek1p1BIkb-13" style="edgeStyle=orthogonalEdgeStyle;rounded=0;orthogonalLoop=1;jettySize=auto;html=1;fillColor=#dae8fc;strokeColor=#FFB570;" parent="1" edge="1">
          <mxGeometry relative="1" as="geometry">
            <mxPoint x="319" y="309.92" as="targetPoint" />
            <mxPoint x="50" y="310" as="sourcePoint" />
            <Array as="points">
              <mxPoint x="115" y="309.92" />
            </Array>
          </mxGeometry>
        </mxCell>
        <mxCell id="tpiX2UqeTkmQybxUgkPM-99" value="" style="endArrow=classic;html=1;rounded=0;shadow=0;strokeColor=#000000;fillColor=#9933FF;" parent="1" edge="1">
          <mxGeometry width="50" height="50" relative="1" as="geometry">
            <mxPoint x="783" y="320" as="sourcePoint" />
            <mxPoint x="793" y="320" as="targetPoint" />
            <Array as="points">
              <mxPoint x="793" y="320" />
            </Array>
          </mxGeometry>
        </mxCell>
        <mxCell id="tpiX2UqeTkmQybxUgkPM-2" value="Parâmetros Morfológicos da Membrana Cerâmica" style="text;html=1;align=center;verticalAlign=middle;resizable=0;points=[];autosize=1;strokeColor=none;fillColor=none;" parent="1" vertex="1">
          <mxGeometry x="20" y="205" width="290" height="30" as="geometry" />
        </mxCell>
        <mxCell id="tpiX2UqeTkmQybxUgkPM-39" value="Predição da temperatura, pressão, composição e&lt;br style=&quot;border-color: var(--border-color);&quot;&gt;vazão das correntes de saída" style="text;html=1;align=center;verticalAlign=middle;resizable=0;points=[];autosize=1;strokeColor=none;fillColor=none;" parent="1" vertex="1">
          <mxGeometry x="520" y="160" width="290" height="40" as="geometry" />
        </mxCell>
        <mxCell id="9GcNmrUak-LWxILDc-qs-11" value="Dados de temperatura, pressão, composição e &lt;br&gt;vazão da corrente de entrada" style="text;html=1;align=center;verticalAlign=middle;resizable=0;points=[];autosize=1;strokeColor=none;fillColor=none;" parent="1" vertex="1">
          <mxGeometry x="35" y="160" width="270" height="40" as="geometry" />
        </mxCell>
        <mxCell id="1WJ2X0ivUdaweF878MrX-2" value="" style="group" vertex="1" connectable="0" parent="1">
          <mxGeometry x="40.99" y="510" width="80" height="25" as="geometry" />
        </mxCell>
        <mxCell id="1WJ2X0ivUdaweF878MrX-3" style="edgeStyle=orthogonalEdgeStyle;rounded=0;orthogonalLoop=1;jettySize=auto;html=1;fillColor=#dae8fc;strokeColor=#ff70a2;" edge="1" parent="1WJ2X0ivUdaweF878MrX-2">
          <mxGeometry relative="1" as="geometry">
            <mxPoint x="78.43137254901961" y="20" as="targetPoint" />
            <mxPoint y="20" as="sourcePoint" />
            <Array as="points">
              <mxPoint x="50.19607843137255" y="20" />
              <mxPoint x="50.19607843137255" y="20" />
            </Array>
          </mxGeometry>
        </mxCell>
        <mxCell id="tpiX2UqeTkmQybxUgkPM-36" value="Resíduo dos resultados preditos" style="text;html=1;align=center;verticalAlign=middle;resizable=0;points=[];autosize=1;strokeColor=none;fillColor=none;" parent="1" vertex="1">
          <mxGeometry x="552" y="255" width="200" height="30" as="geometry" />
        </mxCell>
        <mxCell id="1WJ2X0ivUdaweF878MrX-4" style="edgeStyle=orthogonalEdgeStyle;rounded=0;orthogonalLoop=1;jettySize=auto;html=1;fillColor=#dae8fc;strokeColor=#66ff85;" edge="1" parent="1">
          <mxGeometry relative="1" as="geometry">
            <mxPoint x="121" y="560" as="targetPoint" />
            <mxPoint x="120" y="560" as="sourcePoint" />
            <Array as="points">
              <mxPoint x="40.99000000000001" y="560" />
            </Array>
          </mxGeometry>
        </mxCell>
      </root>
    </mxGraphModel>
  </diagram>
</mxfile>
